<?xml version="1.0" encoding="UTF-8"?>
<!DOCTYPE svg PUBLIC "-//W3C//DTD SVG 1.1//EN" "http://www.w3.org/Graphics/SVG/1.1/DTD/svg11.dtd">
<!-- Creator: CorelDRAW 2019 (64 Bit) -->
<svg xmlns="http://www.w3.org/2000/svg" xml:space="preserve" width="223.14mm" height="66.4355mm" version="1.1" style="shape-rendering:geometricPrecision; text-rendering:geometricPrecision; image-rendering:optimizeQuality; fill-rule:evenodd; clip-rule:evenodd"
viewBox="0 0 21488.09 6397.64"
 xmlns:xlink="http://www.w3.org/1999/xlink">
 <defs>
  <style type="text/css">
   <![CDATA[
    .str0 {stroke:#FEFEFE;stroke-width:19.26;stroke-miterlimit:22.9256}
    .str1 {stroke:#04D361;stroke-width:7.34;stroke-miterlimit:22.9256}
    .str2 {stroke:#8257E5;stroke-width:7.34;stroke-miterlimit:22.9256}
    .str4 {stroke:#F7DC43;stroke-width:7.34;stroke-miterlimit:22.9256}
    .str3 {stroke:white;stroke-width:7.34;stroke-miterlimit:22.9256}
    .str5 {stroke:#FEFEFE;stroke-width:137.93;stroke-miterlimit:22.9256}
    .fil14 {fill:none}
    .fil0 {fill:#FEFEFE}
    .fil4 {fill:#04D361}
    .fil2 {fill:#373D98}
    .fil10 {fill:#383D99}
    .fil3 {fill:#494D4B}
    .fil8 {fill:#4C56D2}
    .fil5 {fill:#8257E5}
    .fil9 {fill:#F7DC43}
    .fil1 {fill:#F7DD43}
    .fil6 {fill:white}
    .fil13 {fill:#FEFEFE;fill-rule:nonzero}
    .fil11 {fill:#383D99;fill-rule:nonzero}
    .fil12 {fill:#FCFCFF;fill-rule:nonzero}
    .fil7 {fill:white;fill-rule:nonzero}
   ]]>
  </style>
 </defs>
 <g id="Camada_x0020_1">
  <metadata id="CorelCorpID_0Corel-Layer"/>
  <g id="_1495571975856">
   <path class="fil0 str0" d="M1266.54 9.63l18955.01 0c694.05,0 1256.91,463.57 1256.91,1035.23l0 4307.93c0,571.65 -562.86,1035.22 -1256.91,1035.22l-18955.01 0.01c-694.04,-0.01 -1256.9,-463.58 -1256.9,-1035.24l-0.01 -4307.92c0.01,-571.66 562.87,-1035.23 1256.92,-1035.23l-0.01 0z"/>
   <g>
    <g>
     <polygon class="fil1" points="2921.46,1594.02 2921.46,1533.51 2752.69,1595.68 2752.37,1595.68 2752.37,1657.78 2752.69,1657.78 2921.46,1719.95 2921.46,1659.36 2834.91,1626.57 2921.46,1593.93 "/>
     <path class="fil1" d="M3898.98 1716.94l0 -60.51 86.46 -32.55 -86.46 -32.55 0 -60.5 168.52 62.16 0.4 0 0 62.18 -0.4 0 -168.52 61.85 0 -0.08zm-72.4 -271.74l-99.09 315.29 58.81 0 99.09 -315.29 -58.81 0z"/>
     <path class="fil1" d="M3169.41 1525.19c16.78,18.22 25.58,42.3 24.54,66.93l0 134.33 -58.81 0 0 -121.97c0.71,-13.62 -3.68,-26.93 -12.31,-37.54 -8.16,-9.43 -20.22,-14.65 -32.76,-14.1 -36.84,0 -55.29,25.35 -55.29,75.95l0 97.66 -58.82 0 0 -220.49 58.82 0 0 19.88c18.69,-17.97 44.02,-27.56 70.08,-26.45 24.29,-1.03 47.78,8.41 64.56,25.82l0 0z"/>
     <polygon class="fil1" points="3268.89,1411.15 3268.89,1726.44 3327.71,1726.44 3327.71,1411.15 "/>
     <polygon class="fil1" points="3660.29,1726.44 3611.23,1726.44 3563.12,1596.55 3514.54,1726.44 3465.48,1726.44 3383.01,1505.56 3445.9,1505.56 3492.25,1637.66 3540.03,1505.56 3585.98,1505.56 3633.77,1638.06 3680.11,1505.56 3743,1505.56 3660.45,1726.44 "/>
     <path class="fil2" d="M4387.29 1871.44c-60.27,0 -123.57,-11.32 -173.19,-38.58l0 -480.91c48.83,-26.49 112.15,-38.59 173.19,-38.59 61.03,0 122.85,11.32 171.63,38.59l0 184.52 -122.86 0 0 -125.56c-14.46,-6.05 -32.04,-8.29 -49.56,-8.29 -17.52,0 -33.6,2.24 -48.84,8.29l0 362.99c14.46,6.05 31.26,8.3 48.84,8.3 17.57,0 34.31,-2.25 49.56,-8.3l0 -125.5 122.86 0 0 184.52c-48.06,26.48 -111.37,37.81 -171.63,38.58l0 -0.06z"/>
     <path class="fil2" d="M4789.34 1871.44c-64.87,0 -127.39,-13.64 -177.03,-41.6l0 -475.64c48.84,-27.19 111.45,-40.83 177.03,-40.83 65.58,0 126.61,12.87 175.47,40.83l0 475.64c-48.07,27.97 -111.37,40.83 -175.47,41.6zm52.67 -458.99c-14.47,-6.04 -32.05,-9.07 -53.39,-9.07 -21.35,0 -38.14,3.03 -52.68,9.07l0 359.2c14.47,6.81 32.05,9.83 52.68,9.83 20.63,0 38.15,-3.02 53.39,-9.83l0 -359.2z"/>
     <path class="fil2" d="M5179.2 1667.24l-32.82 0 0 197.38 -124.36 0 0 -544.42 157.18 0c74.78,0 131.23,15.1 175.46,46.1l0 254.85c-43.45,30.28 -100.73,46.09 -175.46,46.09zm51.89 -253.3c-11.41,-8.3 -26.71,-12.09 -52.67,-12.09l-33.6 0 0 183.75 33.6 0c25.17,0 40.42,-3.79 52.67,-11.32l0 -160.35z"/>
     <path class="fil2" d="M5614.79 1864.62l0 -197.38 -91.54 0 0 197.38 -123.57 0 0 -511.18c45.02,-26.49 108.33,-40.07 169.35,-40.07 61.05,0 123.59,13.64 168.6,40.07l0 511.18 -122.84 0zm0 -456.73c-12.99,-6.04 -29.01,-9.06 -45.81,-9.06 -16.79,0 -32.82,3.02 -45.79,9.06l0 173.14 91.51 0 0 -173.14 0.09 0z"/>
    </g>
    <g>
     <path class="fil2" d="M2134.45 1124.53l0 0c255.08,0 461.93,206.87 461.93,461.94l0.01 0c-0.01,255.07 -206.87,461.93 -461.94,461.93l0 0.01c-255.08,-0.01 -461.93,-206.88 -461.93,-461.94l-0.01 0c0.01,-255.08 206.87,-461.94 461.94,-461.94z"/>
     <polygon class="fil1" points="1911.82,1714.56 1911.82,1699.41 1892.27,1710.74 1905.27,1733.41 1924.91,1722.08 "/>
     <polygon class="fil1" points="1924.91,1722.08 1905.27,1733.41 1892.27,1710.74 1911.82,1699.41 1911.82,1714.56 "/>
     <path class="fil1" d="M2374.99 1439.53l-234.87 -135.57c-4.01,-2.35 -8.98,-2.35 -13.1,0l-234.77 135.57c-4.1,2.34 -6.55,6.63 -6.55,11.33l0 271.22c0,4.7 2.45,8.99 6.55,11.33l234.77 135.57c2.05,1.17 4.3,1.76 6.55,1.76 2.25,0 4.59,-0.59 6.55,-1.76l234.87 -135.57c4.1,-2.34 6.55,-6.63 6.55,-11.33l0 -271.22c0,-4.7 -2.45,-8.99 -6.55,-11.33zm-450.09 282.55l208.67 -120.51 208.68 120.51 -208.68 120.52 -208.67 -120.52 -19.64 11.33 -13 -22.67 19.55 -11.33 0 -240.93 221.77 -128.04 208.68 120.42 -430.44 248.55 0 15.15 13.1 7.52z"/>
    </g>
   </g>
   <g>
    <path class="fil3" d="M689.04 2491.23l4381.82 0c241.97,0.01 438.2,215.97 438.2,482.28l-0.01 1014.38c0.01,266.29 -196.22,482.25 -438.18,482.25l-4381.83 0.02c-241.95,-0.02 -438.18,-215.98 -438.18,-482.28l-0.01 -1014.39c0.01,-266.29 196.24,-482.25 438.2,-482.25l-0.01 -0.01z"/>
    <path class="fil4 str1" d="M4916.55 2491.21l1746.97 0c273.76,0 495.76,169.18 495.76,377.8l-0.01 1223.38c0.01,208.61 -222,377.79 -495.74,377.79l-1746.98 0.01c-273.74,-0.01 -495.74,-169.19 -495.74,-377.81l-0.02 -1223.37c0.02,-208.62 222.03,-377.8 495.77,-377.8l-0.01 0z"/>
    <g id="_2267535403664">
     <polygon class="fil5" points="3311.29,3984.43 3152.88,3984.43 2997.57,3561.41 2840.78,3984.43 2682.52,3984.43 2416.23,3265.11 2619.17,3265.11 2768.8,3695.27 2922.82,3265.11 3071.01,3265.11 3225.02,3696.73 3374.66,3265.11 3577.59,3265.11 "/>
     <polygon class="fil5" points="2104.76,2966.9 2104.76,3993.74 2294.71,3993.74 2294.71,2966.9 "/>
     <path class="fil5" d="M1810.57 3339.19c52.81,56.05 79.13,128.83 79.13,218.01l0 437.31 -189.93 0 0 -397.18c0,-50.86 -13.16,-91.63 -39.65,-122.33 -26.32,-30.7 -61.58,-45.97 -105.77,-45.97 -118.93,0 -178.38,82.53 -178.38,247.41l0 317.91 -189.94 0 0 -717.86 189.94 0 0 64.81c57.52,-57.5 132.9,-86.25 225.84,-86.25 86.44,-0.16 155.97,27.94 208.78,84.15l-0.01 0z"/>
     <polygon class="fil6 str2" points="3724.55,3927.83 3724.55,3730.78 4003.59,3624.71 3724.55,3518.61 3724.55,3321.56 4268.54,3523.99 4269.84,3523.51 4269.84,3524.47 4269.84,3724.94 4269.84,3725.91 4268.54,3725.42 "/>
     <polygon class="fil6" points="982.77,3518.54 982.77,3321.48 438.59,3523.99 437.5,3523.57 437.5,3524.38 437.5,3725.01 437.5,3725.82 438.59,3725.42 982.77,3927.9 982.77,3730.86 703.52,3624.7 "/>
    </g>
    <path class="fil7 str3" d="M5253.9 3660.31l-108.19 0 -40.04 231.01 -103.76 0 40.62 -231.01 -128.01 0 0 -95.87 144.38 0 28.68 -164.02 -130.9 0 0 -95.87 147.84 0 41.2 -234.47 103.18 0 -41.2 234.47 108.38 0 41.58 -234.47 103.18 0 -41 234.47 123.97 0 0 95.87 -140.91 0 -28.88 164.02 127.06 0 0 95.87 -143.42 0 -40.62 231.01 -103.76 0 40.62 -231.01zm-91.24 -95.87l107.6 0 28.88 -164.02 -108.38 0 -28.1 164.02zm1021.25 6.93c0,108.57 -24.83,190.96 -74.69,247.18 -49.85,56.21 -117.23,84.31 -202.13,84.31 -85.86,0 -153.63,-28.1 -203.67,-84.31 -50.06,-56.22 -75.08,-138.61 -75.08,-247.18l0 -180.77c0,-108.37 25.03,-190.77 74.89,-247.18 49.66,-56.59 117.23,-84.9 202.71,-84.9 84.9,0 152.47,28.3 202.71,84.9 50.25,56.41 75.27,138.8 75.27,247.18l0 180.77zm-164.02 -197.89c0,-64.88 -9.81,-112.42 -29.45,-142.65 -19.44,-30.23 -47.74,-45.24 -84.51,-45.24 -37.34,0 -65.45,15.01 -84.7,45.05 -19.06,30.04 -28.69,77.58 -28.69,142.84l0 213.3c0,66.03 9.63,113.96 29.07,144 19.25,30.03 47.74,45.05 85.47,45.05 36.77,0 64.88,-15.02 83.93,-45.05 19.25,-30.04 28.87,-77.96 28.87,-144l0 -213.3zm439.69 37.33l92.6 0c39.08,0 67.95,-10.2 86.82,-30.6 18.86,-20.6 28.1,-48.9 28.1,-85.47 0,-32.91 -9.24,-59.48 -28.1,-79.31 -18.87,-19.83 -46.01,-29.84 -81.82,-29.84 -30.8,0 -56.79,9.05 -77.77,26.95 -21.18,18.09 -31.57,41.77 -31.57,71.03l-159.59 0 -1.16 -3.46c-2.31,-64.3 22.33,-117.24 73.92,-159.02 51.4,-41.77 115.31,-62.57 191.74,-62.57 84.9,0 152.65,20.21 203.29,60.83 50.62,40.62 75.84,98.57 75.84,173.65 0,35.79 -11.35,69.69 -33.88,101.84 -22.52,32.15 -53.52,57.17 -92.99,75.27 45.43,16.18 80.08,41 103.95,74.31 23.87,33.49 35.8,72.38 35.8,116.66 0,75.08 -27.34,134.18 -82.01,177.3 -54.68,42.92 -124.75,64.48 -210.03,64.48 -76.43,0 -141.88,-20.21 -196.55,-60.64 -54.67,-40.43 -81.24,-97.41 -79.31,-171.13l1.16 -3.47 159.59 0c0,31.37 11.36,57.37 33.89,77.58 22.52,20.41 51.01,30.61 85.66,30.61 37.93,0 67.96,-10.4 89.9,-31.38 22.14,-20.98 33.12,-49.47 33.12,-85.47 0,-42.93 -10.79,-74.5 -32.54,-94.52 -21.56,-20.02 -53.32,-30.04 -95.48,-30.04l-92.6 0 0 -123.59 0.01 0.01z"/>
    <path class="fil8" d="M689.04 2491.23l4381.82 0c241.97,0.01 438.2,215.97 438.2,482.28l-0.01 1014.38c0.01,266.29 -196.22,482.25 -438.18,482.25l-4381.83 0.02c-241.95,-0.02 -438.18,-215.98 -438.18,-482.28l-0.01 -1014.39c0.01,-266.29 196.24,-482.25 438.2,-482.25l-0.01 -0.01z"/>
    <path class="fil9 str4" d="M4916.55 2491.21l1746.97 0c273.76,0 495.76,169.18 495.76,377.8l-0.01 1223.38c0.01,208.61 -222,377.79 -495.74,377.79l-1746.98 0.01c-273.74,-0.01 -495.74,-169.19 -495.74,-377.81l-0.02 -1223.37c0.02,-208.62 222.03,-377.8 495.77,-377.8l-0.01 0z"/>
    <g id="_2267685808592">
     <polygon class="fil9 str4" points="3311.29,3984.42 3152.88,3984.42 2997.57,3561.4 2840.78,3984.42 2682.52,3984.42 2416.23,3265.1 2619.17,3265.1 2768.8,3695.26 2922.82,3265.1 3071.01,3265.1 3225.02,3696.72 3374.66,3265.1 3577.59,3265.1 "/>
     <polygon class="fil9" points="2104.76,2966.89 2104.76,3993.73 2294.71,3993.73 2294.71,2966.89 "/>
     <path class="fil9" d="M1810.57 3339.18c52.81,56.05 79.13,128.83 79.13,218.01l0 437.31 -189.93 0 0 -397.18c0,-50.86 -13.16,-91.63 -39.65,-122.33 -26.32,-30.7 -61.58,-45.97 -105.77,-45.97 -118.93,0 -178.38,82.53 -178.38,247.41l0 317.91 -189.94 0 0 -717.86 189.94 0 0 64.81c57.52,-57.5 132.9,-86.25 225.84,-86.25 86.44,-0.16 155.97,27.94 208.78,84.15l-0.01 0z"/>
     <polygon class="fil9 str2" points="3724.55,3927.82 3724.55,3730.77 4003.59,3624.7 3724.55,3518.6 3724.55,3321.55 4268.54,3523.98 4269.84,3523.5 4269.84,3524.46 4269.84,3724.93 4269.84,3725.9 4268.54,3725.42 "/>
     <polygon class="fil9" points="982.77,3518.53 982.77,3321.47 438.59,3523.98 437.5,3523.56 437.5,3524.37 437.5,3725 437.5,3725.81 438.59,3725.41 982.77,3927.89 982.77,3730.85 703.52,3624.69 "/>
    </g>
    <g>
     <path class="fil10" d="M4986.29 3861.7c-82.3,0 -168.74,-15.46 -236.51,-52.68l0 -656.71c66.7,-36.17 153.15,-52.68 236.51,-52.68 83.36,0 167.77,15.46 234.39,52.68l0 251.97 -167.77 0 0 -171.47c-19.76,-8.25 -43.76,-11.32 -67.68,-11.32 -23.92,0 -45.88,3.07 -66.7,11.32l0 495.69c19.75,8.25 42.69,11.32 66.7,11.32 24,0 46.86,-3.07 67.68,-11.32l0 -171.38 167.77 0 0 251.97c-65.64,36.17 -152.09,51.63 -234.39,52.68l0 -0.08z"/>
     <path class="fil10" d="M5535.32 3861.7c-88.59,0 -173.96,-18.61 -241.73,-56.81l0 -649.5c66.7,-37.14 152.17,-55.76 241.73,-55.76 89.56,0 172.9,17.56 239.61,55.76l0 649.5c-65.64,38.19 -152.08,55.76 -239.61,56.81zm71.93 -626.77c-19.77,-8.25 -43.77,-12.38 -72.92,-12.38 -29.15,0 -52.08,4.13 -71.93,12.38l0 490.51c19.77,9.3 43.77,13.43 71.93,13.43 28.18,0 52.11,-4.13 72.92,-13.43l0 -490.51z"/>
     <path class="fil10" d="M6067.7 3582.85l-44.82 0 0 269.54 -169.82 0 0 -743.45 214.64 0c102.11,0 179.18,20.63 239.59,62.95l0 348.01c-59.34,41.35 -137.55,62.95 -239.59,62.95zm70.86 -345.9c-15.59,-11.33 -36.49,-16.51 -71.93,-16.51l-45.89 0 0 250.93 45.89 0c34.37,0 55.19,-5.18 71.93,-15.46l0 -218.96z"/>
     <path class="fil10" d="M6662.53 3852.39l0 -269.54 -125.01 0 0 269.54 -168.74 0 0 -698.06c61.48,-36.17 147.92,-54.71 231.27,-54.71 83.37,0 168.77,18.61 230.23,54.71l0 698.06 -167.75 0zm0 -623.7c-17.74,-8.25 -39.6,-12.38 -62.56,-12.38 -22.93,0 -44.82,4.13 -62.53,12.38l0 236.43 124.98 0 0 -236.43 0.11 0z"/>
    </g>
   </g>
   <g>
    <path class="fil3" d="M16417.23 2491.23l4381.82 0c241.97,0.01 438.2,215.97 438.2,482.28l-0.01 1014.38c0.01,266.29 -196.22,482.25 -438.18,482.25l-4381.83 0.02c-241.95,-0.02 -438.18,-215.98 -438.18,-482.28l-0.01 -1014.39c0.01,-266.29 196.24,-482.25 438.2,-482.25l-0.01 -0.01z"/>
    <path class="fil4 str1" d="M14828.32 2491.21l1746.97 0c273.76,0 495.76,169.18 495.76,377.8l-0.01 1223.38c0.01,208.61 -222,377.79 -495.74,377.79l-1746.98 0.01c-273.74,-0.01 -495.74,-169.19 -495.74,-377.81l-0.02 -1223.37c0.02,-208.62 222.03,-377.8 495.77,-377.8l-0.01 0z"/>
    <path class="fil7 str3" d="M15034.54 3660.31l-108.19 0 -40.04 231.01 -103.76 0 40.62 -231.01 -128.01 0 0 -95.87 144.38 0 28.68 -164.02 -130.9 0 0 -95.87 147.84 0 41.2 -234.47 103.18 0 -41.2 234.47 108.38 0 41.58 -234.47 103.18 0 -41 234.47 123.97 0 0 95.87 -140.91 0 -28.88 164.02 127.06 0 0 95.87 -143.42 0 -40.62 231.01 -103.76 0 40.62 -231.01zm-91.24 -95.87l107.6 0 28.88 -164.02 -108.38 0 -28.1 164.02zm1021.25 6.93c0,108.57 -24.83,190.96 -74.69,247.18 -49.85,56.21 -117.23,84.31 -202.13,84.31 -85.86,0 -153.63,-28.1 -203.67,-84.31 -50.06,-56.22 -75.08,-138.61 -75.08,-247.18l0 -180.77c0,-108.37 25.03,-190.77 74.89,-247.18 49.66,-56.59 117.23,-84.9 202.71,-84.9 84.9,0 152.47,28.3 202.71,84.9 50.25,56.41 75.27,138.8 75.27,247.18l0 180.77zm-164.02 -197.89c0,-64.88 -9.81,-112.42 -29.45,-142.65 -19.44,-30.23 -47.74,-45.24 -84.51,-45.24 -37.34,0 -65.45,15.01 -84.7,45.05 -19.06,30.04 -28.69,77.58 -28.69,142.84l0 213.3c0,66.03 9.63,113.96 29.07,144 19.25,30.03 47.74,45.05 85.47,45.05 36.77,0 64.88,-15.02 83.93,-45.05 19.25,-30.04 28.87,-77.96 28.87,-144l0 -213.3zm439.69 37.33l92.6 0c39.08,0 67.95,-10.2 86.82,-30.6 18.86,-20.6 28.1,-48.9 28.1,-85.47 0,-32.91 -9.24,-59.48 -28.1,-79.31 -18.87,-19.83 -46.01,-29.84 -81.82,-29.84 -30.8,0 -56.79,9.05 -77.77,26.95 -21.18,18.09 -31.57,41.77 -31.57,71.03l-159.59 0 -1.16 -3.46c-2.31,-64.3 22.33,-117.24 73.92,-159.02 51.4,-41.77 115.31,-62.57 191.74,-62.57 84.9,0 152.65,20.21 203.29,60.83 50.62,40.62 75.84,98.57 75.84,173.65 0,35.79 -11.35,69.69 -33.88,101.84 -22.52,32.15 -53.52,57.17 -92.99,75.27 45.43,16.18 80.08,41 103.95,74.31 23.87,33.49 35.8,72.38 35.8,116.66 0,75.08 -27.34,134.18 -82.01,177.3 -54.68,42.92 -124.75,64.48 -210.03,64.48 -76.43,0 -141.88,-20.21 -196.55,-60.64 -54.67,-40.43 -81.24,-97.41 -79.31,-171.13l1.16 -3.47 159.59 0c0,31.37 11.36,57.37 33.89,77.58 22.52,20.41 51.01,30.61 85.66,30.61 37.93,0 67.96,-10.4 89.9,-31.38 22.14,-20.98 33.12,-49.47 33.12,-85.47 0,-42.93 -10.79,-74.5 -32.54,-94.52 -21.56,-20.02 -53.32,-30.04 -95.48,-30.04l-92.6 0 0 -123.59 0.01 0.01z"/>
    <g id="_2267535387888">
     <polygon class="fil5" points="19902.31,3913.65 19743.91,3913.65 19588.58,3490.63 19431.79,3913.65 19273.54,3913.65 19007.23,3194.33 19210.17,3194.33 19359.81,3624.49 19513.83,3194.33 19662.03,3194.33 19816.05,3625.95 19965.68,3194.33 20168.61,3194.33 "/>
     <polygon class="fil5" points="18695.79,2896.12 18695.79,3922.96 18885.72,3922.96 18885.72,2896.12 "/>
     <path class="fil5" d="M18478.63 3268.41c52.81,56.05 79.13,128.83 79.13,218.01l0 437.31 -189.93 0 0 -397.18c0,-50.86 -13.16,-91.63 -39.65,-122.33 -26.32,-30.7 -61.58,-45.97 -105.77,-45.97 -118.93,0 -178.38,82.53 -178.38,247.41l0 317.91 -189.94 0 0 -717.86 189.94 0 0 64.81c57.52,-57.5 132.9,-86.25 225.84,-86.25 86.44,-0.16 155.97,27.94 208.78,84.15l-0.01 0z"/>
     <polygon class="fil6" points="17727.87,3447.76 17727.87,3250.7 17183.69,3453.21 17182.6,3452.79 17182.6,3453.6 17182.6,3654.23 17182.6,3655.04 17183.69,3654.64 17727.87,3857.12 17727.87,3660.08 17448.61,3553.92 "/>
     <g>
      <polygon class="fil6 str3" points="20361.9,3038.42 20042,4065.27 20231.95,4065.27 20551.85,3038.42 "/>
      <polygon class="fil6" points="20546.14,3854.98 20546.14,3657.94 20825.19,3551.87 20546.14,3445.77 20546.14,3248.72 21090.12,3451.15 21091.42,3450.67 21091.42,3451.63 21091.42,3652.09 21091.42,3653.07 21090.12,3652.58 "/>
     </g>
    </g>
    <path class="fil8" d="M16417.23 2491.23l4381.82 0c241.97,0.01 438.2,215.97 438.2,482.28l-0.01 1014.38c0.01,266.29 -196.22,482.25 -438.18,482.25l-4381.83 0.02c-241.95,-0.02 -438.18,-215.98 -438.18,-482.28l-0.01 -1014.39c0.01,-266.29 196.24,-482.25 438.2,-482.25l-0.01 -0.01z"/>
    <path class="fil9 str4" d="M14828.32 2491.21l1746.97 0c273.76,0 495.76,169.18 495.76,377.8l-0.01 1223.38c0.01,208.61 -222,377.79 -495.74,377.79l-1746.98 0.01c-273.74,-0.01 -495.74,-169.19 -495.74,-377.81l-0.02 -1223.37c0.02,-208.62 222.03,-377.8 495.77,-377.8l-0.01 0z"/>
    <g id="_2267685804464">
     <polygon class="fil9 str4" points="19902.31,3913.65 19743.91,3913.65 19588.58,3490.63 19431.79,3913.65 19273.54,3913.65 19007.23,3194.33 19210.17,3194.33 19359.81,3624.49 19513.83,3194.33 19662.03,3194.33 19816.05,3625.95 19965.68,3194.33 20168.61,3194.33 "/>
     <polygon class="fil9" points="18695.79,2896.12 18695.79,3922.96 18885.72,3922.96 18885.72,2896.12 "/>
     <path class="fil9" d="M18478.63 3268.41c52.81,56.05 79.13,128.83 79.13,218.01l0 437.31 -189.93 0 0 -397.18c0,-50.86 -13.16,-91.63 -39.65,-122.33 -26.32,-30.7 -61.58,-45.97 -105.77,-45.97 -118.93,0 -178.38,82.53 -178.38,247.41l0 317.91 -189.94 0 0 -717.86 189.94 0 0 64.81c57.52,-57.5 132.9,-86.25 225.84,-86.25 86.44,-0.16 155.97,27.94 208.78,84.15l-0.01 0z"/>
     <polygon class="fil9" points="17727.87,3447.76 17727.87,3250.7 17183.69,3453.21 17182.6,3452.79 17182.6,3453.6 17182.6,3654.23 17182.6,3655.04 17183.69,3654.64 17727.87,3857.12 17727.87,3660.08 17448.61,3553.92 "/>
     <g>
      <polygon class="fil9 str4" points="20361.9,3038.42 20042,4065.27 20231.95,4065.27 20551.85,3038.42 "/>
      <polygon class="fil9" points="20546.14,3854.98 20546.14,3657.94 20825.19,3551.87 20546.14,3445.77 20546.14,3248.72 21090.12,3451.15 21091.42,3450.67 21091.42,3451.63 21091.42,3652.09 21091.42,3653.07 21090.12,3652.58 "/>
     </g>
    </g>
    <g>
     <path class="fil10" d="M14898.07 3861.7c-82.3,0 -168.74,-15.46 -236.51,-52.68l0 -656.71c66.7,-36.17 153.15,-52.68 236.51,-52.68 83.36,0 167.77,15.46 234.39,52.68l0 251.97 -167.77 0 0 -171.47c-19.76,-8.25 -43.76,-11.32 -67.68,-11.32 -23.92,0 -45.88,3.07 -66.7,11.32l0 495.69c19.75,8.25 42.69,11.32 66.7,11.32 24,0 46.86,-3.07 67.68,-11.32l0 -171.38 167.77 0 0 251.97c-65.64,36.17 -152.09,51.63 -234.39,52.68l0 -0.08z"/>
     <path class="fil10" d="M15447.1 3861.7c-88.59,0 -173.96,-18.61 -241.73,-56.81l0 -649.5c66.7,-37.14 152.17,-55.76 241.73,-55.76 89.56,0 172.9,17.56 239.61,55.76l0 649.5c-65.64,38.19 -152.08,55.76 -239.61,56.81zm71.93 -626.77c-19.77,-8.25 -43.77,-12.38 -72.92,-12.38 -29.15,0 -52.08,4.13 -71.93,12.38l0 490.51c19.77,9.3 43.77,13.43 71.93,13.43 28.18,0 52.11,-4.13 72.92,-13.43l0 -490.51z"/>
     <path class="fil10" d="M15979.48 3582.85l-44.82 0 0 269.54 -169.82 0 0 -743.45 214.64 0c102.11,0 179.18,20.63 239.59,62.95l0 348.01c-59.34,41.35 -137.55,62.95 -239.59,62.95zm70.86 -345.9c-15.59,-11.33 -36.49,-16.51 -71.93,-16.51l-45.89 0 0 250.93 45.89 0c34.37,0 55.19,-5.18 71.93,-15.46l0 -218.96z"/>
     <path class="fil10" d="M16574.31 3852.39l0 -269.54 -125.01 0 0 269.54 -168.74 0 0 -698.06c61.48,-36.17 147.92,-54.71 231.27,-54.71 83.37,0 168.77,18.61 230.23,54.71l0 698.06 -167.75 0zm0 -623.7c-17.74,-8.25 -39.6,-12.38 -62.56,-12.38 -22.93,0 -44.82,4.13 -62.53,12.38l0 236.43 124.98 0 0 -236.43 0.11 0z"/>
    </g>
   </g>
   <g>
    <g>
     <polygon class="fil1" points="17001.29,1594.02 17001.29,1533.51 16832.52,1595.68 16832.2,1595.68 16832.2,1657.78 16832.52,1657.78 17001.29,1719.95 17001.29,1659.36 16914.74,1626.57 17001.29,1593.93 "/>
     <path class="fil1" d="M17978.81 1716.94l0 -60.51 86.46 -32.55 -86.46 -32.55 0 -60.5 168.52 62.16 0.4 0 0 62.18 -0.4 0 -168.52 61.85 0 -0.08zm-72.4 -271.74l-99.09 315.29 58.81 0 99.09 -315.29 -58.81 0z"/>
     <path class="fil1" d="M17249.24 1525.19c16.78,18.22 25.58,42.3 24.54,66.93l0 134.33 -58.81 0 0 -121.97c0.71,-13.62 -3.68,-26.93 -12.31,-37.54 -8.16,-9.43 -20.22,-14.65 -32.76,-14.1 -36.84,0 -55.29,25.35 -55.29,75.95l0 97.66 -58.82 0 0 -220.49 58.82 0 0 19.88c18.69,-17.97 44.02,-27.56 70.08,-26.45 24.29,-1.03 47.78,8.41 64.56,25.82l0 0z"/>
     <polygon class="fil1" points="17348.72,1411.15 17348.72,1726.44 17407.54,1726.44 17407.54,1411.15 "/>
     <polygon class="fil1" points="17740.12,1726.44 17691.06,1726.44 17642.95,1596.55 17594.37,1726.44 17545.31,1726.44 17462.84,1505.56 17525.73,1505.56 17572.08,1637.66 17619.86,1505.56 17665.81,1505.56 17713.6,1638.06 17759.94,1505.56 17822.83,1505.56 17740.28,1726.44 "/>
     <path class="fil2" d="M18467.12 1871.44c-60.27,0 -123.57,-11.32 -173.19,-38.58l0 -480.91c48.83,-26.49 112.15,-38.59 173.19,-38.59 61.03,0 122.85,11.32 171.63,38.59l0 184.52 -122.86 0 0 -125.56c-14.46,-6.05 -32.04,-8.29 -49.56,-8.29 -17.52,0 -33.6,2.24 -48.84,8.29l0 362.99c14.46,6.05 31.26,8.3 48.84,8.3 17.57,0 34.31,-2.25 49.56,-8.3l0 -125.5 122.86 0 0 184.52c-48.06,26.48 -111.37,37.81 -171.63,38.58l0 -0.06z"/>
     <path class="fil2" d="M18869.17 1871.44c-64.87,0 -127.39,-13.64 -177.03,-41.6l0 -475.64c48.84,-27.19 111.45,-40.83 177.03,-40.83 65.58,0 126.61,12.87 175.47,40.83l0 475.64c-48.07,27.97 -111.37,40.83 -175.47,41.6zm52.67 -458.99c-14.47,-6.04 -32.05,-9.07 -53.39,-9.07 -21.35,0 -38.14,3.03 -52.68,9.07l0 359.2c14.47,6.81 32.05,9.83 52.68,9.83 20.63,0 38.15,-3.02 53.39,-9.83l0 -359.2z"/>
     <path class="fil2" d="M19259.03 1667.24l-32.82 0 0 197.38 -124.36 0 0 -544.42 157.18 0c74.78,0 131.23,15.1 175.46,46.1l0 254.85c-43.45,30.28 -100.73,46.09 -175.46,46.09zm51.89 -253.3c-11.41,-8.3 -26.71,-12.09 -52.67,-12.09l-33.6 0 0 183.75 33.6 0c25.17,0 40.42,-3.79 52.67,-11.32l0 -160.35z"/>
     <path class="fil2" d="M19694.62 1864.62l0 -197.38 -91.54 0 0 197.38 -123.57 0 0 -511.18c45.02,-26.49 108.33,-40.07 169.35,-40.07 61.05,0 123.59,13.64 168.6,40.07l0 511.18 -122.84 0zm0 -456.73c-12.99,-6.04 -29.01,-9.06 -45.81,-9.06 -16.79,0 -32.82,3.02 -45.79,9.06l0 173.14 91.51 0 0 -173.14 0.09 0z"/>
    </g>
    <g>
     <path class="fil2" d="M16214.28 1124.53l0 0c255.08,0 461.93,206.87 461.93,461.94l0.01 0c-0.01,255.07 -206.87,461.93 -461.94,461.93l0 0.01c-255.08,-0.01 -461.93,-206.88 -461.93,-461.94l-0.01 0c0.01,-255.08 206.87,-461.94 461.94,-461.94z"/>
     <polygon class="fil1" points="15991.65,1714.56 15991.65,1699.41 15972.1,1710.74 15985.1,1733.41 16004.74,1722.08 "/>
     <polygon class="fil1" points="16004.74,1722.08 15985.1,1733.41 15972.1,1710.74 15991.65,1699.41 15991.65,1714.56 "/>
     <path class="fil1" d="M16454.82 1439.53l-234.87 -135.57c-4.01,-2.35 -8.98,-2.35 -13.1,0l-234.77 135.57c-4.1,2.34 -6.55,6.63 -6.55,11.33l0 271.22c0,4.7 2.45,8.99 6.55,11.33l234.77 135.57c2.05,1.17 4.3,1.76 6.55,1.76 2.25,0 4.59,-0.59 6.55,-1.76l234.87 -135.57c4.1,-2.34 6.55,-6.63 6.55,-11.33l0 -271.22c0,-4.7 -2.45,-8.99 -6.55,-11.33zm-450.09 282.55l208.67 -120.51 208.68 120.51 -208.68 120.52 -208.67 -120.52 -19.64 11.33 -13 -22.67 19.55 -11.33 0 -240.93 221.77 -128.04 208.68 120.42 -430.44 248.55 0 15.15 13.1 7.52z"/>
    </g>
   </g>
   <path class="fil11" d="M1074.52 5373.25c0,-49.55 10.8,-89.47 32.39,-119.8 21.6,-30.42 51.83,-45.58 90.76,-45.58 17.55,0 33.1,3.97 46.38,11.99 13.38,7.93 24.77,19.32 34.28,33.98l6.63 -40.03 73.23 0 0 312.32c0,40.83 -13.47,72.44 -40.22,94.73 -26.86,22.29 -64.12,33.49 -111.97,33.49 -15.86,0 -32.7,-2.19 -50.44,-6.54 -17.83,-4.36 -34.28,-10.3 -49.34,-17.94l15.66 -63.32c12.98,6.14 26.15,10.8 39.64,14.08 13.38,3.17 28.04,4.75 43.99,4.75 23.19,0 40.23,-4.85 51.23,-14.46 10.9,-9.61 16.35,-24.67 16.35,-45.08l0 -28.45c-9.32,11.8 -20.21,20.81 -32.8,26.95 -12.59,6.24 -26.95,9.31 -43.2,9.31 -38.55,0 -68.57,-14.17 -90.17,-42.51 -21.6,-28.34 -32.39,-65.59 -32.39,-111.86l0 -6.05zm84.81 6.14c0,27.54 4.66,49.25 13.88,65.1 9.31,15.85 24.47,23.78 45.28,23.78 12.98,0 23.98,-2.38 32.99,-7.13 9.02,-4.76 16.26,-11.7 21.61,-20.81l0 -137.03c-5.35,-9.51 -12.59,-16.95 -21.61,-22.2 -9.01,-5.25 -19.81,-7.83 -32.39,-7.83 -20.71,0 -35.77,9.22 -45.39,27.65 -9.61,18.53 -14.37,42.6 -14.37,72.33l0 6.14zm353.04 148.33l-84.81 0 0 -313.9 84.81 0 0 313.9zm0 -389.4l-84.81 0 0 -63.61 84.81 0 0 63.61zm170.43 -1.39l0 76.88 52.81 0 0 59.45 -52.81 0 0 159.83c0,12.18 2.47,20.91 7.53,26.15 5.06,5.25 11.8,7.83 20.31,7.83 4.46,0 8.33,-0.2 11.5,-0.69 3.17,-0.5 6.93,-1.39 11.09,-2.47l7.34 61.03c-8.52,2.98 -16.84,5.15 -24.97,6.54 -8.13,1.48 -16.95,2.18 -26.45,2.18 -29.24,0 -51.72,-8.02 -67.48,-24.07 -15.75,-16.05 -23.69,-41.42 -23.69,-76.3l0 -160.02 -45.87 0 0 -59.45 45.87 0 0 -76.88 84.82 0zm189.54 116.52c9.91,-14.37 22,-25.46 36.27,-33.49 14.37,-8.02 30.23,-12.09 47.67,-12.09 32.69,0 58.36,10.9 77.09,32.7 18.62,21.7 27.94,55.38 27.94,100.77l0 186.38 -84.71 0 0 -187.27c0,-24.47 -4.36,-41.72 -12.98,-51.91 -8.52,-10.21 -21.41,-15.26 -38.44,-15.26 -11.59,0 -21.8,2.08 -30.72,6.24 -8.92,4.16 -16.25,10.01 -22.1,17.64l0 230.57 -84.71 0 0 -453.02 84.71 0 0 178.75zm444.79 228.99c-9.71,16.45 -21.99,29.13 -36.85,37.95 -14.96,8.81 -32.11,13.27 -51.42,13.27 -33.1,0 -58.96,-10.6 -77.68,-31.7 -18.63,-21.2 -27.95,-54.1 -27.95,-98.79l0 -189.35 84.42 0 0 190.25c0,22.89 3.86,39.23 11.58,49.25 7.73,10.01 19.23,14.96 34.29,14.96 13.57,0 25.16,-2.18 34.87,-6.54 9.61,-4.35 17.55,-10.8 23.79,-19.32l0 -228.59 84.71 0 0 313.9 -72.23 0 -7.53 -45.28zm427.06 -103.15c0,46.86 -10.5,84.22 -31.4,112.26 -20.91,28.04 -51.13,42.11 -90.57,42.11 -18.23,0 -34.08,-3.77 -47.75,-11.39 -13.67,-7.63 -25.17,-18.73 -34.68,-33.49l-6.35 38.94 -72.63 0 0 -453.02 84.52 0 0 172.41c9.11,-12.59 19.91,-22.29 32.6,-29.03 12.68,-6.84 27.24,-10.21 43.69,-10.21 39.94,0 70.26,15.06 91.17,45.09 20.91,30.12 31.4,70.15 31.4,120.29l0 6.05zm-84.51 -6.05c0,-30.72 -4.46,-55 -13.48,-73.02 -9.01,-17.94 -24.37,-26.95 -46.07,-26.95 -13.08,0 -24.28,2.77 -33.4,8.32 -9.01,5.55 -16.25,13.48 -21.4,23.79l0 133.46c5.15,9.51 12.38,16.75 21.6,21.8 9.22,5.06 20.41,7.63 33.78,7.63 21.9,0 37.16,-7.72 45.88,-23.18 8.72,-15.46 13.09,-37.35 13.09,-65.69l0 -6.14zm230.76 154.47l-84.71 0 0 -74.31 84.71 0 0 74.31zm210.76 -59.45c15.16,0 27.24,-4.35 36.27,-13.08 9.11,-8.72 13.67,-20.41 13.67,-35.07l76.98 0 0.8 1.78c0.79,31.71 -11.1,58.26 -35.87,79.67 -24.67,21.4 -55.29,32.1 -91.85,32.1 -46.77,0 -82.93,-14.76 -108.31,-44.38 -25.26,-29.63 -37.94,-67.58 -37.94,-114.05l0 -8.62c0,-46.28 12.58,-84.33 37.85,-114.05 25.27,-29.83 61.33,-44.69 108.1,-44.69 38.74,0 69.95,11 93.63,33.1 23.68,22.09 35.18,51.12 34.39,87.09l-0.6 1.69 -77.18 0c0,-16.15 -4.46,-29.63 -13.39,-40.43 -8.81,-10.7 -21.1,-16.05 -36.85,-16.05 -22.4,0 -38.25,8.72 -47.47,26.06 -9.11,17.34 -13.77,39.73 -13.77,67.08l0 8.72c0,27.95 4.66,50.44 13.77,67.58 9.22,17.04 25.17,25.56 47.76,25.56zm162.79 -100.56c0,-46.77 13.08,-85.12 39.23,-115.04 26.06,-29.82 62.32,-44.79 108.6,-44.79 46.38,0 82.74,14.86 109.1,44.69 26.36,29.72 39.53,68.17 39.53,115.13l0 6.14c0,47.16 -13.17,85.61 -39.33,115.33 -26.26,29.63 -62.53,44.49 -108.8,44.49 -46.38,0 -82.74,-14.86 -108.99,-44.49 -26.16,-29.72 -39.34,-68.17 -39.34,-115.33l0 -6.14zm84.52 5.94c0,28.53 5.05,51.42 15.05,68.77 10.11,17.24 26.36,25.86 48.76,25.86 21.9,0 37.95,-8.72 48.05,-26.06 10.21,-17.33 15.26,-40.22 15.26,-68.56l0 -6.05c0,-27.74 -5.15,-50.43 -15.36,-67.97 -10.3,-17.54 -26.45,-26.36 -48.46,-26.36 -21.9,0 -37.94,8.82 -48.05,26.45 -10.21,17.64 -15.25,40.33 -15.25,67.87l0 6.05zm342.83 -159.83l3.47 41.52c10.1,-15.06 22.69,-26.75 37.95,-35.08 15.16,-8.22 32.69,-12.38 52.61,-12.38 20.12,0 37.35,4.46 51.72,13.38 14.27,8.92 25.17,22.29 32.5,40.33 9.71,-16.84 22.29,-30.03 37.75,-39.43 15.47,-9.51 33.69,-14.27 54.6,-14.27 30.91,0 55.39,10.7 73.23,32.11 17.93,21.3 26.85,53.9 26.85,97.6l0 190.14 -84.71 0 0 -190.74c0,-23.88 -3.87,-40.43 -11.59,-49.74 -7.73,-9.31 -19.33,-13.97 -34.58,-13.97 -11.99,0 -22.4,2.68 -31.21,8.02 -8.82,5.35 -15.86,12.68 -21.01,22.2 0,3.67 0.11,6.84 0.3,9.51 0.2,2.58 0.3,5.25 0.3,7.93l0 206.79 -84.52 0 0 -190.74c0,-23.28 -3.86,-39.73 -11.59,-49.34 -7.72,-9.61 -19.41,-14.37 -34.87,-14.37 -11.4,0 -21.41,2.18 -30.03,6.54 -8.62,4.36 -15.75,10.51 -21.3,18.43l0 229.48 -84.52 0 0 -313.9 78.68 0zm481.55 350.17l-82.44 0 154.97 -458.96 82.43 0 -154.96 458.96zm378 -36.27c-3.17,-7.14 -5.85,-14.67 -8.02,-22.69 -2.28,-7.93 -3.86,-16.05 -4.76,-24.37 -8.72,15.35 -20.21,27.94 -34.48,37.94 -14.17,10.02 -31.21,15.06 -50.92,15.06 -32.9,0 -58.27,-8.42 -76,-25.37 -17.83,-16.94 -26.75,-40.03 -26.75,-69.16 0,-30.82 11.88,-54.59 35.56,-71.54 23.69,-16.94 58.27,-25.37 103.74,-25.37l47.37 0 0 -24.97c0,-15.06 -3.97,-26.75 -11.89,-35.07 -7.93,-8.32 -19.62,-12.48 -35.18,-12.48 -13.67,0 -24.28,3.36 -31.7,10.01 -7.53,6.63 -11.2,15.85 -11.2,27.74l-81.84 -0.3 -0.3 -1.78c-1.39,-26.46 10.11,-49.34 34.48,-68.67 24.37,-19.22 56.48,-28.83 96.11,-28.83 37.56,0 67.98,9.51 91.46,28.64 23.38,19.02 35.07,46.17 35.07,81.34l0 129.7c0,14.76 1.18,28.64 3.37,41.51 2.27,12.98 5.75,25.87 10.6,38.64l-84.72 0zm-77.58 -56.48c14.96,0 28.14,-3.67 39.83,-11 11.59,-7.33 19.42,-15.85 23.49,-25.57l0 -44.29 -47.37 0c-17.93,0 -31.61,4.46 -40.92,13.47 -9.22,9.02 -13.88,19.82 -13.88,32.61 0,10.4 3.48,18.82 10.41,25.16 7.03,6.44 16.45,9.61 28.44,9.61zm199.46 -97.99c0,-49.55 10.8,-89.47 32.39,-119.8 21.6,-30.42 51.83,-45.58 90.76,-45.58 17.55,0 33.1,3.97 46.38,11.99 13.38,7.93 24.77,19.32 34.28,33.98l6.63 -40.03 73.23 0 0 312.32c0,40.83 -13.47,72.44 -40.22,94.73 -26.86,22.29 -64.12,33.49 -111.97,33.49 -15.86,0 -32.7,-2.19 -50.44,-6.54 -17.83,-4.36 -34.28,-10.3 -49.34,-17.94l15.66 -63.32c12.98,6.14 26.15,10.8 39.64,14.08 13.38,3.17 28.04,4.75 43.99,4.75 23.19,0 40.23,-4.85 51.23,-14.46 10.9,-9.61 16.35,-24.67 16.35,-45.08l0 -28.45c-9.32,11.8 -20.21,20.81 -32.8,26.95 -12.59,6.24 -26.95,9.31 -43.2,9.31 -38.55,0 -68.57,-14.17 -90.17,-42.51 -21.6,-28.34 -32.39,-65.59 -32.39,-111.86l0 -6.05zm84.81 6.14c0,27.54 4.66,49.25 13.88,65.1 9.31,15.85 24.47,23.78 45.28,23.78 12.98,0 23.98,-2.38 32.99,-7.13 9.02,-4.76 16.26,-11.7 21.61,-20.81l0 -137.03c-5.35,-9.51 -12.59,-16.95 -21.61,-22.2 -9.01,-5.25 -19.81,-7.83 -32.39,-7.83 -20.71,0 -35.77,9.22 -45.39,27.65 -9.61,18.53 -14.37,42.6 -14.37,72.33l0 6.14zm285.96 148.33l0 -254.45 -46.76 0 0 -59.45 46.76 0 0 -34.87c0,-35.27 10.11,-62.43 30.42,-81.56 20.42,-19.12 48.95,-28.63 85.72,-28.63 7.13,0 14.46,0.49 21.89,1.58 7.43,1.1 15.66,2.48 24.48,4.46l-7.23 62.23c-4.66,-0.79 -9.12,-1.39 -13.48,-1.98 -4.35,-0.59 -9.41,-0.89 -15.25,-0.89 -13.77,0 -24.18,3.86 -31.21,11.49 -7.04,7.64 -10.6,18.63 -10.6,32.9l0 35.27 62.42 0 0 59.45 -62.42 0 0 254.45 -84.72 0zm291.22 -390.79l0 76.88 52.81 0 0 59.45 -52.81 0 0 159.83c0,12.18 2.47,20.91 7.53,26.15 5.06,5.25 11.8,7.83 20.31,7.83 4.46,0 8.33,-0.2 11.5,-0.69 3.17,-0.5 6.93,-1.39 11.09,-2.47l7.34 61.03c-8.52,2.98 -16.84,5.15 -24.97,6.54 -8.13,1.48 -16.95,2.18 -26.45,2.18 -29.24,0 -51.72,-8.02 -67.48,-24.07 -15.75,-16.05 -23.69,-41.42 -23.69,-76.3l0 -160.02 -45.87 0 0 -59.45 45.87 0 0 -76.88 84.82 0zm245.83 396.73c-45.28,0 -81.45,-14.46 -108.5,-43.5 -27.15,-29.02 -40.63,-65.89 -40.63,-110.58l0 -11.58c0,-46.57 12.79,-85.02 38.45,-115.14 25.66,-30.22 60.04,-45.18 103.15,-44.98 42.41,0 75.31,12.78 98.69,38.25 23.49,25.56 35.18,60.04 35.18,103.54l0 46.08 -187.57 0 -0.6 1.78c1.59,20.61 8.52,37.55 20.81,50.83 12.29,13.28 28.94,19.91 50.04,19.91 18.83,0 34.39,-1.88 46.77,-5.64 12.38,-3.77 25.96,-9.71 40.62,-17.83l22.99 52.42c-12.78,10.51 -29.53,19.22 -50.23,26.06 -20.71,6.93 -43.8,10.4 -69.16,10.4zm-7.53 -260.39c-15.66,0 -28.04,5.94 -37.16,17.93 -9.01,11.99 -14.66,27.74 -16.84,47.17l0.9 1.48 103.94 0 0 -7.53c0,-17.93 -4.26,-32.3 -12.58,-43 -8.43,-10.7 -21.2,-16.05 -38.25,-16.05zm314.99 194.99c15.16,0 27.24,-4.35 36.27,-13.08 9.11,-8.72 13.67,-20.41 13.67,-35.07l76.98 0 0.8 1.78c0.79,31.71 -11.1,58.26 -35.87,79.67 -24.67,21.4 -55.29,32.1 -91.85,32.1 -46.77,0 -82.93,-14.76 -108.31,-44.38 -25.26,-29.63 -37.94,-67.58 -37.94,-114.05l0 -8.62c0,-46.28 12.58,-84.33 37.85,-114.05 25.27,-29.83 61.33,-44.69 108.1,-44.69 38.74,0 69.95,11 93.63,33.1 23.68,22.09 35.18,51.12 34.39,87.09l-0.6 1.69 -77.18 0c0,-16.15 -4.46,-29.63 -13.39,-40.43 -8.81,-10.7 -21.1,-16.05 -36.85,-16.05 -22.4,0 -38.25,8.72 -47.47,26.06 -9.11,17.34 -13.77,39.73 -13.77,67.08l0 8.72c0,27.95 4.66,50.44 13.77,67.58 9.22,17.04 25.17,25.56 47.76,25.56zm258.6 -214.81c9.91,-14.37 22,-25.46 36.27,-33.49 14.37,-8.02 30.23,-12.09 47.67,-12.09 32.69,0 58.36,10.9 77.09,32.7 18.62,21.7 27.94,55.38 27.94,100.77l0 186.38 -84.71 0 0 -187.27c0,-24.47 -4.36,-41.72 -12.98,-51.91 -8.52,-10.21 -21.41,-15.26 -38.44,-15.26 -11.59,0 -21.8,2.08 -30.72,6.24 -8.92,4.16 -16.25,10.01 -22.1,17.64l0 230.57 -84.71 0 0 -453.02 84.71 0 0 178.75z"/>
   <path class="fil11" d="M15154.35 5373.25c0,-49.55 10.8,-89.47 32.39,-119.8 21.6,-30.42 51.83,-45.58 90.76,-45.58 17.55,0 33.1,3.97 46.38,11.99 13.38,7.93 24.77,19.32 34.28,33.98l6.63 -40.03 73.23 0 0 312.32c0,40.83 -13.47,72.44 -40.22,94.73 -26.86,22.29 -64.12,33.49 -111.97,33.49 -15.86,0 -32.7,-2.19 -50.44,-6.54 -17.83,-4.36 -34.28,-10.3 -49.34,-17.94l15.66 -63.32c12.98,6.14 26.15,10.8 39.64,14.08 13.38,3.17 28.04,4.75 43.99,4.75 23.19,0 40.23,-4.85 51.23,-14.46 10.9,-9.61 16.35,-24.67 16.35,-45.08l0 -28.45c-9.32,11.8 -20.21,20.81 -32.8,26.95 -12.59,6.24 -26.95,9.31 -43.2,9.31 -38.55,0 -68.57,-14.17 -90.17,-42.51 -21.6,-28.34 -32.39,-65.59 -32.39,-111.86l0 -6.05zm84.81 6.14c0,27.54 4.66,49.25 13.88,65.1 9.31,15.85 24.47,23.78 45.28,23.78 12.98,0 23.98,-2.38 32.99,-7.13 9.02,-4.76 16.26,-11.7 21.61,-20.81l0 -137.03c-5.35,-9.51 -12.59,-16.95 -21.61,-22.2 -9.01,-5.25 -19.81,-7.83 -32.39,-7.83 -20.71,0 -35.77,9.22 -45.39,27.65 -9.61,18.53 -14.37,42.6 -14.37,72.33l0 6.14zm353.04 148.33l-84.81 0 0 -313.9 84.81 0 0 313.9zm0 -389.4l-84.81 0 0 -63.61 84.81 0 0 63.61zm170.43 -1.39l0 76.88 52.81 0 0 59.45 -52.81 0 0 159.83c0,12.18 2.47,20.91 7.53,26.15 5.06,5.25 11.8,7.83 20.31,7.83 4.46,0 8.33,-0.2 11.5,-0.69 3.17,-0.5 6.93,-1.39 11.09,-2.47l7.34 61.03c-8.52,2.98 -16.84,5.15 -24.97,6.54 -8.13,1.48 -16.95,2.18 -26.45,2.18 -29.24,0 -51.72,-8.02 -67.48,-24.07 -15.75,-16.05 -23.69,-41.42 -23.69,-76.3l0 -160.02 -45.87 0 0 -59.45 45.87 0 0 -76.88 84.82 0zm189.54 116.52c9.91,-14.37 22,-25.46 36.27,-33.49 14.37,-8.02 30.23,-12.09 47.67,-12.09 32.69,0 58.36,10.9 77.09,32.7 18.62,21.7 27.94,55.38 27.94,100.77l0 186.38 -84.71 0 0 -187.27c0,-24.47 -4.36,-41.72 -12.98,-51.91 -8.52,-10.21 -21.41,-15.26 -38.44,-15.26 -11.59,0 -21.8,2.08 -30.72,6.24 -8.92,4.16 -16.25,10.01 -22.1,17.64l0 230.57 -84.71 0 0 -453.02 84.71 0 0 178.75zm444.79 228.99c-9.71,16.45 -21.99,29.13 -36.85,37.95 -14.96,8.81 -32.11,13.27 -51.42,13.27 -33.1,0 -58.96,-10.6 -77.68,-31.7 -18.63,-21.2 -27.95,-54.1 -27.95,-98.79l0 -189.35 84.42 0 0 190.25c0,22.89 3.86,39.23 11.58,49.25 7.73,10.01 19.23,14.96 34.29,14.96 13.57,0 25.16,-2.18 34.87,-6.54 9.61,-4.35 17.55,-10.8 23.79,-19.32l0 -228.59 84.71 0 0 313.9 -72.23 0 -7.53 -45.28zm427.06 -103.15c0,46.86 -10.5,84.22 -31.4,112.26 -20.91,28.04 -51.13,42.11 -90.57,42.11 -18.23,0 -34.08,-3.77 -47.75,-11.39 -13.67,-7.63 -25.17,-18.73 -34.68,-33.49l-6.35 38.94 -72.63 0 0 -453.02 84.52 0 0 172.41c9.11,-12.59 19.91,-22.29 32.6,-29.03 12.68,-6.84 27.24,-10.21 43.69,-10.21 39.94,0 70.26,15.06 91.17,45.09 20.91,30.12 31.4,70.15 31.4,120.29l0 6.05zm-84.51 -6.05c0,-30.72 -4.46,-55 -13.48,-73.02 -9.01,-17.94 -24.37,-26.95 -46.07,-26.95 -13.08,0 -24.28,2.77 -33.4,8.32 -9.01,5.55 -16.25,13.48 -21.4,23.79l0 133.46c5.15,9.51 12.38,16.75 21.6,21.8 9.22,5.06 20.41,7.63 33.78,7.63 21.9,0 37.16,-7.72 45.88,-23.18 8.72,-15.46 13.09,-37.35 13.09,-65.69l0 -6.14zm230.76 154.47l-84.71 0 0 -74.31 84.71 0 0 74.31zm210.76 -59.45c15.16,0 27.24,-4.35 36.27,-13.08 9.11,-8.72 13.67,-20.41 13.67,-35.07l76.98 0 0.8 1.78c0.79,31.71 -11.1,58.26 -35.87,79.67 -24.67,21.4 -55.29,32.1 -91.85,32.1 -46.77,0 -82.93,-14.76 -108.31,-44.38 -25.26,-29.63 -37.94,-67.58 -37.94,-114.05l0 -8.62c0,-46.28 12.58,-84.33 37.85,-114.05 25.27,-29.83 61.33,-44.69 108.1,-44.69 38.74,0 69.95,11 93.63,33.1 23.68,22.09 35.18,51.12 34.39,87.09l-0.6 1.69 -77.18 0c0,-16.15 -4.46,-29.63 -13.39,-40.43 -8.81,-10.7 -21.1,-16.05 -36.85,-16.05 -22.4,0 -38.25,8.72 -47.47,26.06 -9.11,17.34 -13.77,39.73 -13.77,67.08l0 8.72c0,27.95 4.66,50.44 13.77,67.58 9.22,17.04 25.17,25.56 47.76,25.56zm162.79 -100.56c0,-46.77 13.08,-85.12 39.23,-115.04 26.06,-29.82 62.32,-44.79 108.6,-44.79 46.38,0 82.74,14.86 109.1,44.69 26.36,29.72 39.53,68.17 39.53,115.13l0 6.14c0,47.16 -13.17,85.61 -39.33,115.33 -26.26,29.63 -62.53,44.49 -108.8,44.49 -46.38,0 -82.74,-14.86 -108.99,-44.49 -26.16,-29.72 -39.34,-68.17 -39.34,-115.33l0 -6.14zm84.52 5.94c0,28.53 5.05,51.42 15.05,68.77 10.11,17.24 26.36,25.86 48.76,25.86 21.9,0 37.95,-8.72 48.05,-26.06 10.21,-17.33 15.26,-40.22 15.26,-68.56l0 -6.05c0,-27.74 -5.15,-50.43 -15.36,-67.97 -10.3,-17.54 -26.45,-26.36 -48.46,-26.36 -21.9,0 -37.94,8.82 -48.05,26.45 -10.21,17.64 -15.25,40.33 -15.25,67.87l0 6.05zm342.83 -159.83l3.47 41.52c10.1,-15.06 22.69,-26.75 37.95,-35.08 15.16,-8.22 32.69,-12.38 52.61,-12.38 20.12,0 37.35,4.46 51.72,13.38 14.27,8.92 25.17,22.29 32.5,40.33 9.71,-16.84 22.29,-30.03 37.75,-39.43 15.47,-9.51 33.69,-14.27 54.6,-14.27 30.91,0 55.39,10.7 73.23,32.11 17.93,21.3 26.85,53.9 26.85,97.6l0 190.14 -84.71 0 0 -190.74c0,-23.88 -3.87,-40.43 -11.59,-49.74 -7.73,-9.31 -19.33,-13.97 -34.58,-13.97 -11.99,0 -22.4,2.68 -31.21,8.02 -8.82,5.35 -15.86,12.68 -21.01,22.2 0,3.67 0.11,6.84 0.3,9.51 0.2,2.58 0.3,5.25 0.3,7.93l0 206.79 -84.52 0 0 -190.74c0,-23.28 -3.86,-39.73 -11.59,-49.34 -7.72,-9.61 -19.41,-14.37 -34.87,-14.37 -11.4,0 -21.41,2.18 -30.03,6.54 -8.62,4.36 -15.75,10.51 -21.3,18.43l0 229.48 -84.52 0 0 -313.9 78.68 0zm481.55 350.17l-82.44 0 154.97 -458.96 82.43 0 -154.96 458.96zm378 -36.27c-3.17,-7.14 -5.85,-14.67 -8.02,-22.69 -2.28,-7.93 -3.86,-16.05 -4.76,-24.37 -8.72,15.35 -20.21,27.94 -34.48,37.94 -14.17,10.02 -31.21,15.06 -50.92,15.06 -32.9,0 -58.27,-8.42 -76,-25.37 -17.83,-16.94 -26.75,-40.03 -26.75,-69.16 0,-30.82 11.88,-54.59 35.56,-71.54 23.69,-16.94 58.27,-25.37 103.74,-25.37l47.37 0 0 -24.97c0,-15.06 -3.97,-26.75 -11.89,-35.07 -7.93,-8.32 -19.62,-12.48 -35.18,-12.48 -13.67,0 -24.28,3.36 -31.7,10.01 -7.53,6.63 -11.2,15.85 -11.2,27.74l-81.84 -0.3 -0.3 -1.78c-1.39,-26.46 10.11,-49.34 34.48,-68.67 24.37,-19.22 56.48,-28.83 96.11,-28.83 37.56,0 67.98,9.51 91.46,28.64 23.38,19.02 35.07,46.17 35.07,81.34l0 129.7c0,14.76 1.18,28.64 3.37,41.51 2.27,12.98 5.75,25.87 10.6,38.64l-84.72 0zm-77.58 -56.48c14.96,0 28.14,-3.67 39.83,-11 11.59,-7.33 19.42,-15.85 23.49,-25.57l0 -44.29 -47.37 0c-17.93,0 -31.61,4.46 -40.92,13.47 -9.22,9.02 -13.88,19.82 -13.88,32.61 0,10.4 3.48,18.82 10.41,25.16 7.03,6.44 16.45,9.61 28.44,9.61zm199.46 -97.99c0,-49.55 10.8,-89.47 32.39,-119.8 21.6,-30.42 51.83,-45.58 90.76,-45.58 17.55,0 33.1,3.97 46.38,11.99 13.38,7.93 24.77,19.32 34.28,33.98l6.63 -40.03 73.23 0 0 312.32c0,40.83 -13.47,72.44 -40.22,94.73 -26.86,22.29 -64.12,33.49 -111.97,33.49 -15.86,0 -32.7,-2.19 -50.44,-6.54 -17.83,-4.36 -34.28,-10.3 -49.34,-17.94l15.66 -63.32c12.98,6.14 26.15,10.8 39.64,14.08 13.38,3.17 28.04,4.75 43.99,4.75 23.19,0 40.23,-4.85 51.23,-14.46 10.9,-9.61 16.35,-24.67 16.35,-45.08l0 -28.45c-9.32,11.8 -20.21,20.81 -32.8,26.95 -12.59,6.24 -26.95,9.31 -43.2,9.31 -38.55,0 -68.57,-14.17 -90.17,-42.51 -21.6,-28.34 -32.39,-65.59 -32.39,-111.86l0 -6.05zm84.81 6.14c0,27.54 4.66,49.25 13.88,65.1 9.31,15.85 24.47,23.78 45.28,23.78 12.98,0 23.98,-2.38 32.99,-7.13 9.02,-4.76 16.26,-11.7 21.61,-20.81l0 -137.03c-5.35,-9.51 -12.59,-16.95 -21.61,-22.2 -9.01,-5.25 -19.81,-7.83 -32.39,-7.83 -20.71,0 -35.77,9.22 -45.39,27.65 -9.61,18.53 -14.37,42.6 -14.37,72.33l0 6.14zm285.96 148.33l0 -254.45 -46.76 0 0 -59.45 46.76 0 0 -34.87c0,-35.27 10.11,-62.43 30.42,-81.56 20.42,-19.12 48.95,-28.63 85.72,-28.63 7.13,0 14.46,0.49 21.89,1.58 7.43,1.1 15.66,2.48 24.48,4.46l-7.23 62.23c-4.66,-0.79 -9.12,-1.39 -13.48,-1.98 -4.35,-0.59 -9.41,-0.89 -15.25,-0.89 -13.77,0 -24.18,3.86 -31.21,11.49 -7.04,7.64 -10.6,18.63 -10.6,32.9l0 35.27 62.42 0 0 59.45 -62.42 0 0 254.45 -84.72 0zm291.22 -390.79l0 76.88 52.81 0 0 59.45 -52.81 0 0 159.83c0,12.18 2.47,20.91 7.53,26.15 5.06,5.25 11.8,7.83 20.31,7.83 4.46,0 8.33,-0.2 11.5,-0.69 3.17,-0.5 6.93,-1.39 11.09,-2.47l7.34 61.03c-8.52,2.98 -16.84,5.15 -24.97,6.54 -8.13,1.48 -16.95,2.18 -26.45,2.18 -29.24,0 -51.72,-8.02 -67.48,-24.07 -15.75,-16.05 -23.69,-41.42 -23.69,-76.3l0 -160.02 -45.87 0 0 -59.45 45.87 0 0 -76.88 84.82 0zm245.83 396.73c-45.28,0 -81.45,-14.46 -108.5,-43.5 -27.15,-29.02 -40.63,-65.89 -40.63,-110.58l0 -11.58c0,-46.57 12.79,-85.02 38.45,-115.14 25.66,-30.22 60.04,-45.18 103.15,-44.98 42.41,0 75.31,12.78 98.69,38.25 23.49,25.56 35.18,60.04 35.18,103.54l0 46.08 -187.57 0 -0.6 1.78c1.59,20.61 8.52,37.55 20.81,50.83 12.29,13.28 28.94,19.91 50.04,19.91 18.83,0 34.39,-1.88 46.77,-5.64 12.38,-3.77 25.96,-9.71 40.62,-17.83l22.99 52.42c-12.78,10.51 -29.53,19.22 -50.23,26.06 -20.71,6.93 -43.8,10.4 -69.16,10.4zm-7.53 -260.39c-15.66,0 -28.04,5.94 -37.16,17.93 -9.01,11.99 -14.66,27.74 -16.84,47.17l0.9 1.48 103.94 0 0 -7.53c0,-17.93 -4.26,-32.3 -12.58,-43 -8.43,-10.7 -21.2,-16.05 -38.25,-16.05zm314.99 194.99c15.16,0 27.24,-4.35 36.27,-13.08 9.11,-8.72 13.67,-20.41 13.67,-35.07l76.98 0 0.8 1.78c0.79,31.71 -11.1,58.26 -35.87,79.67 -24.67,21.4 -55.29,32.1 -91.85,32.1 -46.77,0 -82.93,-14.76 -108.31,-44.38 -25.26,-29.63 -37.94,-67.58 -37.94,-114.05l0 -8.62c0,-46.28 12.58,-84.33 37.85,-114.05 25.27,-29.83 61.33,-44.69 108.1,-44.69 38.74,0 69.95,11 93.63,33.1 23.68,22.09 35.18,51.12 34.39,87.09l-0.6 1.69 -77.18 0c0,-16.15 -4.46,-29.63 -13.39,-40.43 -8.81,-10.7 -21.1,-16.05 -36.85,-16.05 -22.4,0 -38.25,8.72 -47.47,26.06 -9.11,17.34 -13.77,39.73 -13.77,67.08l0 8.72c0,27.95 4.66,50.44 13.77,67.58 9.22,17.04 25.17,25.56 47.76,25.56zm258.6 -214.81c9.91,-14.37 22,-25.46 36.27,-33.49 14.37,-8.02 30.23,-12.09 47.67,-12.09 32.69,0 58.36,10.9 77.09,32.7 18.62,21.7 27.94,55.38 27.94,100.77l0 186.38 -84.71 0 0 -187.27c0,-24.47 -4.36,-41.72 -12.98,-51.91 -8.52,-10.21 -21.41,-15.26 -38.44,-15.26 -11.59,0 -21.8,2.08 -30.72,6.24 -8.92,4.16 -16.25,10.01 -22.1,17.64l0 230.57 -84.71 0 0 -453.02 84.71 0 0 178.75z"/>
   <polygon class="fil8" points="7855.09,1747.2 13633,1747.2 13633,4650.45 7855.09,4650.45 "/>
   <g>
    <polygon class="fil12" points="10675.01,4650.51 10675.01,1747.14 10812.95,1747.14 10812.95,4650.51 "/>
   </g>
   <g>
    <polygon class="fil13" points="7849.73,3743.09 7849.73,2654.48 7985.86,2654.48 7985.86,3743.09 "/>
   </g>
   <g>
    <polygon class="fil13" points="13499.76,3743.09 13499.76,2654.48 13635.88,2654.48 13635.88,3743.09 "/>
   </g>
   <path class="fil14 str5" d="M10743.98 2362.82c461.65,0 835.94,374.29 835.94,835.94 0,461.65 -374.29,835.94 -835.94,835.94 -461.65,0 -835.94,-374.29 -835.94,-835.94 0,-461.65 374.29,-835.94 835.94,-835.94z"/>
  </g>
 </g>
</svg>
